<svg xmlns="http://www.w3.org/2000/svg" xmlns:xlink="http://www.w3.org/1999/xlink" viewBox="0 0 1121.08 671.2"><defs><linearGradient id="New_Gradient_Swatch_copy" x1="168.18" y1="520.31" x2="168.18" y2="389.06" gradientUnits="userSpaceOnUse"><stop offset="0" stop-color="#3036bc"/><stop offset="1" stop-color="#3d52e1"/></linearGradient><linearGradient id="New_Gradient_Swatch_copy-2" x1="324.14" y1="520.31" x2="324.14" y2="337.34" xlink:href="#New_Gradient_Swatch_copy"/><linearGradient id="New_Gradient_Swatch_copy-3" x1="636.05" y1="520.31" x2="636.05" y2="238.67" xlink:href="#New_Gradient_Swatch_copy"/><linearGradient id="New_Gradient_Swatch_copy-4" x1="792" y1="520.31" x2="792" y2="206.5" xlink:href="#New_Gradient_Swatch_copy"/><linearGradient id="New_Gradient_Swatch_copy-5" x1="480.09" y1="520.31" x2="480.09" y2="295.09" xlink:href="#New_Gradient_Swatch_copy"/></defs><g id="Layer_2" data-name="Layer 2"><g id="Background"><rect width="1121.08" height="671.2" rx="47.71" style="fill:#fff"/><rect x="127.68" y="389.06" width="81.02" height="131.24" rx="40.51" style="fill:url(#New_Gradient_Swatch_copy)"/><rect x="283.63" y="337.34" width="81.02" height="182.96" rx="40.51" style="fill:url(#New_Gradient_Swatch_copy-2)"/><path d="M636.05,520.31h0a40.51,40.51,0,0,1-40.51-40.51V279.18a40.51,40.51,0,0,1,40.51-40.51h0a40.51,40.51,0,0,1,40.51,40.51V479.8A40.51,40.51,0,0,1,636.05,520.31Z" style="fill:url(#New_Gradient_Swatch_copy-3)"/><rect x="751.5" y="206.5" width="81.02" height="313.81" rx="40.51" style="fill:url(#New_Gradient_Swatch_copy-4)"/><path d="M948,520.31h0a40.51,40.51,0,0,1-40.51-40.51V158.91A40.51,40.51,0,0,1,948,118.4h0a40.51,40.51,0,0,1,40.51,40.51V479.8A40.51,40.51,0,0,1,948,520.31Z" style="fill:#19a8a6"/><rect x="439.59" y="295.09" width="81.02" height="225.21" rx="40.51" style="fill:url(#New_Gradient_Swatch_copy-5)"/><path d="M363.39,128.5H146.69a19,19,0,0,1-19-19h0a19,19,0,0,1,19-19h216.7a19,19,0,0,1,19,19h0A19,19,0,0,1,363.39,128.5Z" style="fill:#1d1d1b"/><path d="M263.59,176H136.23a8.55,8.55,0,0,1-8.55-8.55h0a8.55,8.55,0,0,1,8.55-8.56H263.59a8.55,8.55,0,0,1,8.55,8.56h0A8.55,8.55,0,0,1,263.59,176Z" style="fill:#1d1d1b"/></g></g></svg>