<svg xmlns="http://www.w3.org/2000/svg" viewBox="0 0 220 220"><g id="Layer_2" data-name="Layer 2"><g id="ƒŒƒCƒ__1" data-name="ƒŒƒCƒ„[_1"><path d="M72,213.24a110.41,110.41,0,0,0,76.08,0Z" style="fill:#888"/><path d="M110,0A110,110,0,0,0,24.14,178.76l.15-3h0l.26-5.58.15-3.11.21-4.26.35-7.33.2-4.19a10.73,10.73,0,0,1,.23-1.49l0-.16c.11-.48.23-.95.38-1.42h0a18.42,18.42,0,0,1,3.09-5.7h0c.27-.34.55-.68.84-1h0c.28-.32.58-.64.89-.94l0,0c.3-.29.61-.58.93-.86l0,0c.32-.27.65-.54,1-.79l0,0c.33-.25.67-.49,1-.71l0,0c.35-.22.71-.43,1.07-.62h0a11.37,11.37,0,0,1,1.11-.54h0c.37-.16.75-.31,1.14-.44h0c.27-.09.54-.18.81-.25L46.42,134,57.82,131l20.95-5.6.4.42L87,121l.77-.46.4-2.56.17-1,1.5-9.54-.46-.34c-5.59-4.6-9.54-11.73-11.74-21.19a.94.94,0,0,0,0-.16c-1.55.09-6.3-.49-8.29-10.47-1.84-9.18,1.94-10.86,3.82-11.15l0-.12c-.2-.42-.41-.86-.61-1.32a2.29,2.29,0,0,1-.1-.23c-.21-.48-.42-1-.62-1.5h0a34.12,34.12,0,0,1-1.14-3.61h0a30.83,30.83,0,0,1-.33-13.84c3.55-17.24,16.2-20.54,18.34-21a29.88,29.88,0,0,1,22.22-9.67c4.33,0,20.1-.09,29.9,12,7.27,9,7.67,22.17,9,29.74a18.41,18.41,0,0,1-4.36.45,18.55,18.55,0,0,0,4.37-.45c.06.34.12.67.18,1l0,.15.18.76a1.6,1.6,0,0,0,0,.21c.06.21.11.42.17.62s0,.16.07.23l.18.52.09.23c.06.15.13.29.19.43a2.14,2.14,0,0,1,.1.22l.22.36c0,.06.07.12.11.17a2.66,2.66,0,0,0,.26.31,1.31,1.31,0,0,0,.11.12,1.75,1.75,0,0,0,.41.32c-.24,1.63-1.87,2.82-2.87,3.48a7.49,7.49,0,0,0-2.45.74c1.92.76,4.32,3.19,2.79,10.87-2,10-6.75,10.56-8.3,10.47,0,0,0,.11,0,.16-2.07,8.91-5.7,15.76-10.79,20.37l-.49.4,1.62,10.3.17,1,.4,2.56.77.46,7.85,4.78.4-.42,21,5.6,1.42.38,18.27,4.9a7,7,0,0,1,.77.26h0l.34.13.64.25c.44.19.87.39,1.29.61h0c.37.2.74.41,1.09.64h0a12.05,12.05,0,0,1,1,.72h0c.34.25.67.52,1,.8h0c.32.28.64.57.95.87h0c.32.31.62.63.92,1s.33.4.49.59l.34.41h0a18.62,18.62,0,0,1,3.07,5.71h0a.64.64,0,0,1,0,.07,14.1,14.1,0,0,1,.37,1.38l0,.13a13,13,0,0,1,.23,1.5l1.32,27.47A110,110,0,0,0,110,0Z" style="fill:#f9eee1"/><path d="M102.22,60.09a1.21,1.21,0,0,0-1.21-1.2H91a1.2,1.2,0,0,0,0,2.4h10A1.2,1.2,0,0,0,102.22,60.09Z" style="fill:#4d3300"/><path d="M117.82,60.09a1.19,1.19,0,0,0,1.2,1.2h10a1.18,1.18,0,0,0,1.14-.91c-1.25-.45-2.56-.94-4-1.49H119A1.2,1.2,0,0,0,117.82,60.09Z" style="fill:#4d3300"/><path d="M79,83l0-.23,1.47-16.51.58-.62c.57-.6,1.23-1.27,2-2,4-4.07,9.64-10.18,10.3-17.79,2.53,3.81,7.13,7.06,13.72,9.69a63.35,63.35,0,0,0,11.33,3.31.76.76,0,0,0,.83-.43.71.71,0,0,0-.27-.87s-2.24-1.48-5.1-3.8c5,2.15,8.94,3.81,12.32,5.12,1.41.55,2.72,1,4,1.49a79.63,79.63,0,0,0,7.71,2.31l.77,3.59L140,82.07l.08,1a6.78,6.78,0,0,0,3.5-4c.7-2.38,1.95-11.64,2.31-14.32.28-.09.6-.21.92-.34a7.49,7.49,0,0,1,2.45-.74c1-.66,2.63-1.85,2.87-3.48a1.75,1.75,0,0,1-.41-.32,1.31,1.31,0,0,1-.11-.12,2.66,2.66,0,0,1-.26-.31s-.07-.11-.11-.17l-.22-.36a2.14,2.14,0,0,0-.1-.22c-.06-.14-.13-.28-.19-.43l-.09-.23-.18-.52c0-.07,0-.15-.07-.23s-.11-.41-.17-.62a1.6,1.6,0,0,1,0-.21l-.18-.76,0-.15c-.06-.31-.12-.64-.18-1a18.55,18.55,0,0,1-4.37.45h-.64c-.44,0-.9,0-1.39-.08s-1.33-.13-2-.25c-.21,0-.41-.06-.63-.11-5.33-1-26.67-11.33-29.67-11.33s-2.33,4.33-2.33,4.33a28.05,28.05,0,0,1-17.33-18A35.35,35.35,0,0,1,77.73,53.08c-.76.58-1.48,1.09-2.17,1.54a28.11,28.11,0,0,1-4.9,2.66h0A34.12,34.12,0,0,0,71.8,60.9h0c.2.52.41,1,.62,1.5a2.29,2.29,0,0,0,.1.23c.2.46.41.9.61,1.32l0,.12c.17,1.28,1.62,12.31,2.39,14.94A6.78,6.78,0,0,0,79,83Z" style="fill:#633919"/><path d="M85.11,131c.64.46,1.3.89,2,1.31l.42.25c.56.34,1.13.67,1.71,1l.48.25c.61.32,1.24.63,1.87.92l.34.16c1.16.52,2.36,1,3.59,1.42s2.48.79,3.77,1.11l.21,0c.79.19,1.59.36,2.4.5l.25.05c.87.15,1.74.28,2.62.38a43.31,43.31,0,0,0,10.51,0c.89-.1,1.76-.23,2.63-.38l.24-.05c.81-.14,1.62-.31,2.42-.5l.2,0c1.28-.32,2.54-.69,3.77-1.11s2.43-.9,3.59-1.42l.33-.16c.64-.29,1.27-.6,1.88-.92.16-.08.32-.16.47-.25.59-.31,1.16-.64,1.73-1l.4-.24c.68-.42,1.35-.86,2-1.32h0a37.77,37.77,0,0,0,5.92-5.18L133,121l-.77-.46-.4-2.56a59.65,59.65,0,0,1-43.62,0l-.4,2.56L87,121l-7.85,4.78A37,37,0,0,0,85.11,131Z" style="fill:#ffcea1"/><path d="M137.87,62.69a79.63,79.63,0,0,1-7.71-2.31,1.18,1.18,0,0,1-1.14.91H119a1.2,1.2,0,0,1,0-2.4h7.17c-3.38-1.31-7.31-3-12.32-5.12,2.86,2.32,5.07,3.78,5.1,3.8a.71.71,0,0,1,.27.87.76.76,0,0,1-.83.43,63.35,63.35,0,0,1-11.33-3.31c-6.59-2.63-11.19-5.88-13.72-9.69C92.7,53.48,87,59.59,83.06,63.66c-.72.73-1.38,1.4-2,2l-.58.62L79.06,82.79c.17.89.35,1.77.55,2.62,2.1,9,5.82,15.79,11.06,20.1,4.92,4,11.25,6,18.78,5.73l1.33,0c7.43,0,13.61-2.19,18.39-6.52s8.21-10.83,10.18-19.33c.25-1.08.48-2.2.69-3.34l-1.4-15.79ZM107.68,86.18h4.67c1.65,0,1.9.55.57,1.22l-.49.24a6.08,6.08,0,0,1-4.84,0l-.48-.24C105.78,86.73,106,86.18,107.68,86.18ZM89.82,60.09A1.19,1.19,0,0,1,91,58.89h10a1.2,1.2,0,1,1,0,2.4H91A1.19,1.19,0,0,1,89.82,60.09Zm1.93,11.3c0-2.67,1.23-4.09,3.66-4s3.71,1.35,3.65,4-1.23,4.09-3.65,4S91.69,74.07,91.75,71.39ZM122,93.63c-.14.18-3.54,4.4-12,4.4s-11.84-4.22-12-4.4a1.2,1.2,0,1,1,1.88-1.48c.13.15,2.92,3.48,10.1,3.48s10-3.34,10.09-3.48A1.2,1.2,0,0,1,122,93.63Zm2.62-18.21c-2.42.06-3.71-1.35-3.65-4s1.23-4.09,3.65-4,3.72,1.35,3.66,4S127.05,75.48,124.62,75.42Z" style="fill:#ffcea1"/><path d="M77.73,53.08A35.35,35.35,0,0,0,91.41,29.51a28.05,28.05,0,0,0,17.33,18s-.67-4.33,2.33-4.33,24.34,10.33,29.67,11.33c.22.05.42.08.63.11.72.12,1.41.2,2,.25s1,.07,1.39.08h.64a18.41,18.41,0,0,0,4.36-.45c-1.35-7.57-1.75-20.78-9-29.74-9.8-12.09-25.57-12-29.9-12a29.88,29.88,0,0,0-22.22,9.67c-2.14.46-14.79,3.76-18.34,21a30.83,30.83,0,0,0,.33,13.84,28.11,28.11,0,0,0,4.9-2.66C76.25,54.17,77,53.66,77.73,53.08Z" style="fill:#70421b"/><path d="M107.11,87.4l.48.24a6.08,6.08,0,0,0,4.84,0l.49-.24c1.33-.67,1.08-1.22-.57-1.22h-4.67C106,86.18,105.78,86.73,107.11,87.4Z" style="fill:#f4906e"/><path d="M120.11,92.15c-.11.14-2.9,3.48-10.09,3.48s-10-3.33-10.1-3.48A1.2,1.2,0,1,0,98,93.63c.14.18,3.53,4.4,12,4.4s11.84-4.22,12-4.4a1.2,1.2,0,0,0-1.89-1.48Z" style="fill:#ef7c2e"/><path d="M131.81,118l-.17-1L130,106.63l.49-.4c5.09-4.61,8.72-11.46,10.79-20.37,0,0,0-.11,0-.16,1.55.09,6.3-.49,8.3-10.47,1.53-7.68-.87-10.11-2.79-10.87-.32.13-.64.25-.92.34-.36,2.68-1.61,11.94-2.31,14.32a6.78,6.78,0,0,1-3.5,4l-.08-1c-.21,1.14-.44,2.26-.69,3.34-2,8.5-5.4,15-10.18,19.33s-11,6.52-18.39,6.52l-1.33,0c-7.53.24-13.86-1.69-18.78-5.73-5.24-4.31-9-11.08-11.06-20.1-.2-.85-.38-1.73-.55-2.62L79,83a6.78,6.78,0,0,1-3.5-4c-.77-2.63-2.22-13.66-2.39-14.94-1.88.29-5.66,2-3.82,11.15,2,10,6.74,10.56,8.29,10.47a.94.94,0,0,1,0,.16c2.2,9.46,6.15,16.59,11.74,21.19l.46.34-1.5,9.54-.17,1a59.65,59.65,0,0,0,43.62,0Z" style="fill:#ffba7b"/><path d="M171,184.56l-.33,5.8H185.1q3.59-3.35,6.85-7l-2.52.14Z" style="fill:#ddd"/><path d="M170,202.22q3.26-2.13,6.35-4.47h-6.1Z" style="fill:#ddd"/><path d="M25.46,151.29a10.73,10.73,0,0,1,.23-1.49A10.73,10.73,0,0,0,25.46,151.29Z" style="fill:#ddd"/><path d="M194.31,149.79a11.11,11.11,0,0,1,.23,1.5A13,13,0,0,0,194.31,149.79Z" style="fill:#ddd"/><polygon points="52.09 185.82 167.91 185.82 168.28 179.49 51.72 179.49 52.09 185.82" style="fill:#ddd"/><path d="M79.55,131a47,47,0,0,1-3.62-3.32c-.39-.4-.78-.79-1.16-1.21l4-1.07L57.82,131H79.55Z" style="fill:#ddd"/><path d="M144.06,127.64a45.05,45.05,0,0,1-3.61,3.32h21.73l-21-5.6,4,1.07C144.85,126.85,144.46,127.24,144.06,127.64Z" style="fill:#ddd"/><polygon points="48.59 177.15 48.35 172.97 47.83 171.56 31.54 170.59 24.55 170.18 24.29 175.76 31.12 176.15 48.59 177.15" style="fill:#ddd"/><path d="M49,184.56l-18.44-1.05-2.52-.14q3.27,3.65,6.85,7H49.34Z" style="fill:#ddd"/><path d="M43.67,197.75q3.09,2.34,6.35,4.47l-.25-4.47Z" style="fill:#ddd"/><polygon points="168.78 172.1 171.1 165.78 48.9 165.78 51.22 172.1 168.78 172.1" style="fill:#ddd"/><path d="M72,213.24H148a107.92,107.92,0,0,0,14-6.32H57.94A107.92,107.92,0,0,0,72,213.24Z" style="fill:#ddd"/><polygon points="52.87 199.53 167.13 199.53 167.49 193.21 52.51 193.21 52.87 199.53" style="fill:#ddd"/><path d="M194.74,155.48l-7.33,1.05-13.8,2v-7.39l13.26-1.9,7-1a18.62,18.62,0,0,0-3.07-5.71l-5.33.9-11.88,2V138l5-.84,4.07-.69a7,7,0,0,0-.77-.26l-18.27-4.9,10,2.67v4.34H127.93a50.08,50.08,0,0,1-35.86,0H46.42V134l-8.29,2.22c-.27.07-.54.16-.81.25l4.11.7,5,.84v7.39l-11.88-2-5.31-.9a18.42,18.42,0,0,0-3.09,5.7l7,1,13.26,1.9v7.39l-13.8-2-7.33-1.05-.35,7.33,7.18.43,13,.77-.33-.91a1.5,1.5,0,0,1,1.7-2v-2.72H173.55v2.73a1.49,1.49,0,0,1,1.73,2L175,164l13-.77,7.18-.43.36,7.37-7,.41-16.29,1-.52,1.41-.24,4.18,17.47-1,6.83-.39.15,3h0l-1.32-27.47Zm-21.19-3.41H46.42v-7.39H173.55Z" style="fill:#ddd"/><path d="M75.93,127.64A47,47,0,0,0,79.55,131a45.69,45.69,0,0,0,12.52,7.39,50.08,50.08,0,0,0,35.86,0A45.69,45.69,0,0,0,140.45,131a45.05,45.05,0,0,0,3.61-3.32c.4-.4.79-.79,1.17-1.21l-4-1.07-.4.42a37.77,37.77,0,0,1-5.92,5.18c-.65.46-1.32.9-2,1.32l-.4.24c-.57.35-1.14.68-1.73,1-.15.09-.31.17-.47.25-.61.32-1.24.63-1.88.92l-.33.16c-1.16.52-2.36,1-3.59,1.42s-2.49.79-3.77,1.11l-.2,0c-.8.19-1.61.36-2.42.5l-.24.05c-.87.15-1.74.28-2.63.38a43.31,43.31,0,0,1-10.51,0c-.88-.1-1.75-.23-2.62-.38l-.25-.05c-.81-.14-1.61-.31-2.4-.5l-.21,0c-1.29-.32-2.54-.69-3.77-1.11s-2.43-.9-3.59-1.42l-.34-.16c-.63-.29-1.26-.6-1.87-.92l-.48-.25c-.58-.31-1.15-.64-1.71-1l-.42-.25c-.67-.42-1.33-.85-2-1.31a37,37,0,0,1-5.94-5.19l-.4-.42-4,1.07C75.15,126.85,75.54,127.24,75.93,127.64Z" style="fill:#777"/><rect x="46.42" y="144.68" width="127.13" height="7.39" style="fill:#888"/><path d="M132.91,132.28c.68-.42,1.35-.86,2-1.32h0C134.26,131.42,133.59,131.86,132.91,132.28Z" style="fill:#888"/><path d="M128.1,134.84c-1.16.52-2.36,1-3.59,1.42C125.74,135.84,126.94,135.36,128.1,134.84Z" style="fill:#888"/><path d="M140.45,131a45.69,45.69,0,0,1-12.52,7.39h45.62V134l-10-2.67-1.42-.38H140.45Z" style="fill:#888"/><path d="M95.49,136.26c-1.23-.42-2.43-.9-3.59-1.42C93.06,135.36,94.26,135.84,95.49,136.26Z" style="fill:#888"/><path d="M46.42,138.35H92.07A45.69,45.69,0,0,1,79.55,131H57.82L46.42,134v4.33Z" style="fill:#888"/><path d="M173.61,151.11v7.39l13.8-2,7.33-1.05-.2-4.19a11.11,11.11,0,0,0-.23-1.5l0-.13a14.1,14.1,0,0,0-.37-1.38.64.64,0,0,0,0-.07h0l-7,1Z" style="fill:#888"/><path d="M46.39,158.5v-7.39l-13.26-1.9-7-1h0c-.15.47-.27.94-.38,1.42l0,.16a10.73,10.73,0,0,0-.23,1.49l-.2,4.19,7.33,1.05Z" style="fill:#888"/><path d="M173.61,138v7.39l11.88-2,5.33-.9h0l-.34-.41c-.16-.19-.32-.4-.49-.59s-.6-.65-.92-1h0c-.31-.3-.63-.59-.95-.87h0c-.33-.28-.66-.55-1-.8h0a12.05,12.05,0,0,0-1-.72h0c-.35-.23-.72-.44-1.09-.64h0c-.42-.22-.85-.42-1.29-.61l-.64-.25-.34-.13h0l-4.07.69Z" style="fill:#888"/><path d="M46.39,145.42V138l-5-.84-4.11-.7h0c-.39.13-.77.28-1.14.44h0a11.37,11.37,0,0,0-1.11.54h0c-.36.19-.72.4-1.07.62l0,0c-.35.22-.69.46-1,.71l0,0c-.33.25-.66.52-1,.79l0,0c-.32.28-.63.57-.93.86l0,0c-.31.3-.61.62-.89.94h0c-.29.32-.57.66-.84,1h0l5.31.9Z" style="fill:#888"/><path d="M30.57,183.51,49,184.56l.33,5.8H34.9a110.52,110.52,0,0,0,8.77,7.39h6.1l.25,4.47q3.85,2.5,7.92,4.7H162.06q4.06-2.19,7.92-4.7l.25-4.47h6.1a110.52,110.52,0,0,0,8.77-7.39H170.66l.33-5.8,18.44-1.05,2.52-.14c1.34-1.5,2.65-3,3.91-4.61l-.15-3-6.83.39-17.47,1,.24-4.18.52-1.41,16.29-1,7-.41-.36-7.37-7.18.43L175,164l.33-.91a1.49,1.49,0,0,0-1.73-2v-2.73H46.42v2.72a1.5,1.5,0,0,0-1.7,2l.33.91-13-.77-7.18-.43-.21,4.26-.15,3.11,7,.41,16.29,1,.52,1.41.23,4.18-17.46-1-6.83-.39h0l-.15,3c1.26,1.57,2.57,3.11,3.91,4.61Zm136.56,16H52.87l-.36-6.32h115Zm.78-13.71H52.09l-.37-6.33H168.28Zm3.19-20-2.32,6.32H51.22l-2.32-6.32Z" style="fill:#888"/><path d="M99.06,71.39c.06-2.67-1.23-4.09-3.65-4s-3.71,1.35-3.66,4,1.23,4.09,3.66,4S99.12,74.07,99.06,71.39Z" style="fill:#444"/><path d="M124.62,67.37c-2.42-.07-3.71,1.35-3.65,4s1.23,4.09,3.65,4,3.72-1.35,3.66-4S127.05,67.3,124.62,67.37Z" style="fill:#444"/></g></g></svg>