<svg xmlns="http://www.w3.org/2000/svg" viewBox="0 0 220 220"><g id="Layer_2" data-name="Layer 2"><g id="ƒŒƒCƒ__1" data-name="ƒŒƒCƒ„[_1"><path d="M110,0A110,110,0,0,0,37.24,192.49c-.29-6-.52-11.25-.57-13.4-.15-6.51,2.4-14,8.35-16.26,4.17-1.6,13-4.44,18.74-6.27l4.42-2.6,1.95-1.18v0c7-4.14,17.24-10.21,19.48-11.66,2-1.29,4.11-2.32,5.55-4.82a15.06,15.06,0,0,0,1.71-6.87l0-.6c0-.37,0-.75,0-1.15v-4.13c-5.49.29-16,0-22.36-5.33-9-7.52-14.59-24.84-13-40s4.66-31.24,25-44,33-4,33-4,20.08,1.29,29.19,22.58c4.75,11.13,5.41,20,4.95,25.87.08,4-.1,23.08-10.51,33.12-6.58,6.35-13.05,8.56-17.44,9.28a27.36,27.36,0,0,1-2.67,1.56v5c0,.4,0,.78,0,1.15l0,.6a15.2,15.2,0,0,0,1.7,6.87c1.45,2.5,3.57,3.53,5.56,4.82,2.24,1.45,12.48,7.52,19.48,11.66v0l2,1.19,4.39,2.59c5.78,1.83,14.57,4.67,18.74,6.27,6,2.29,8.5,9.75,8.35,16.26-.05,2.15-.28,7.38-.57,13.4A110,110,0,0,0,110,0Z" style="fill:#dacffc"/><path d="M99.05,85.75c.06-3-1.22-4.64-3.65-4.56-2.43-.08-3.71,1.53-3.65,4.56S93,90.39,95.4,90.32,99.11,88.79,99.05,85.75Z" style="fill:#111"/><path d="M124.62,81.19c-2.43-.08-3.71,1.53-3.65,4.56s1.22,4.64,3.65,4.57,3.71-1.53,3.65-4.57S127,81.11,124.62,81.19Z" style="fill:#111"/><path d="M61.18,187.5c2.69-.9,8.32-4.47,8.32-4.47L66,155.28,68.18,154l-4.42,2.6C58,158.39,49.19,161.23,45,162.83c-6,2.29-8.5,9.75-8.35,16.26,0,2.15.28,7.38.57,13.4a109.85,109.85,0,0,0,22.33,15.29C60.15,197.27,61.18,187.5,61.18,187.5Z" style="fill:#d6855c"/><path d="M110,184.28a289.88,289.88,0,0,0,36.12-2.5l3.75-29c-7-4.14-17.24-10.21-19.48-11.66-2-1.29-4.11-2.32-5.56-4.82a15.2,15.2,0,0,1-1.7-6.87,32.83,32.83,0,0,1-26.26,0,15.06,15.06,0,0,1-1.71,6.87c-1.44,2.5-3.56,3.53-5.55,4.82-2.24,1.45-12.48,7.52-19.48,11.66l3.75,29A289.88,289.88,0,0,0,110,184.28Zm6.1-20.87c1.7-.85,20.34-2.71,26-3.26a1,1,0,0,1,1.09.89,1,1,0,0,1-.9,1.1c-9.07.88-24,2.49-25.33,3.07-1,.51-1.1,1.12-1.1,1.14a1,1,0,0,1-1,1,1,1,0,0,1-1-1A3.44,3.44,0,0,1,116.1,163.41Zm-38.62-3.26c5.67.55,24.31,2.41,26,3.26a3.44,3.44,0,0,1,2.22,2.9,1,1,0,0,1-2,0s-.09-.6-1.11-1.11c-1.34-.57-16.24-2.18-25.32-3.06a1,1,0,0,1-.9-1.1A1,1,0,0,1,77.48,160.15Z" style="fill:#d6855c"/><path d="M175,162.83c-4.17-1.6-13-4.44-18.74-6.27L151.85,154l2.15,1.31L150.5,183s5.63,3.57,8.32,4.47c0,0,1,9.77,1.61,20.28a109.85,109.85,0,0,0,22.33-15.29c.29-6,.52-11.25.57-13.4C183.48,172.58,180.93,165.12,175,162.83Z" style="fill:#d6855c"/><path d="M129.9,74.19a1,1,0,0,1-.89.56H119a1,1,0,1,1,0-2h9.68a58.45,58.45,0,0,1-11.13-22.5c-6.4,17.38-25.7,20-31,24.83-4.14,3.78-5.94,9.59-5.77,18.06a53.16,53.16,0,0,0,2,8.77C86,112,92.13,119,100.13,122.06a28.11,28.11,0,0,0,19.74,0c.52-.2,1-.42,1.53-.65,7.25-3.35,12.81-10,15.84-19.5a57.86,57.86,0,0,0,2.54-14.79c0-.3,0-.61.05-.92s.06-.87.08-1.3a16.68,16.68,0,0,0-.87-2.4A44.68,44.68,0,0,1,129.9,74.19Zm-22.23,26.58h4.67c1.65,0,1.9.55.57,1.22l-.48.24a6,6,0,0,1-4.84,0l-.48-.24C105.77,101.32,106,100.77,107.67,100.77ZM90,73.75a1,1,0,0,1,1-1h10a1,1,0,0,1,0,2H91A1,1,0,0,1,90,73.75Zm1.74,12c-.06-3,1.22-4.64,3.65-4.56,2.43-.08,3.71,1.53,3.65,4.56s-1.22,4.64-3.65,4.57S91.69,88.79,91.75,85.75ZM122,107.16c-.14.18-3.54,4.4-12,4.4s-11.84-4.22-12-4.4a1.2,1.2,0,1,1,1.88-1.49c.13.16,2.92,3.49,10.1,3.49s10.06-3.45,10.09-3.48a1.2,1.2,0,1,1,1.89,1.48Zm2.63-16.84c-2.43.07-3.71-1.53-3.65-4.57s1.22-4.64,3.65-4.56c2.42-.08,3.71,1.53,3.65,4.56S127,90.39,124.62,90.32Z" style="fill:#d6855c"/><path d="M102,73.75a1,1,0,0,0-1-1H91a1,1,0,1,0,0,2h10A1,1,0,0,0,102,73.75Z" style="fill:#2a190a"/><path d="M81.38,100.83a74.18,74.18,0,0,1-.59-7.69c-.17-8.47,1.63-14.28,5.77-18.06,5.3-4.83,24.6-7.45,31-24.83a58.45,58.45,0,0,0,11.13,22.5H119a1,1,0,1,0,0,2h10a1,1,0,0,0,.89-.56A44.68,44.68,0,0,0,139,82.5a16.68,16.68,0,0,1,.87,2.4c.16.54.32,1.15.46,1.83A17.46,17.46,0,0,1,138.71,99a13.28,13.28,0,0,0,7.36-3.29c-2.14,6.07-5.58,6.61-6.93,6.56a2,2,0,0,0-.07.23c-2.66,8.27-7.32,14.63-13.32,18.6,4.39-.72,10.86-2.93,17.44-9.28,10.41-10,10.59-29.08,10.51-33.12.46-5.91-.2-14.74-4.95-25.87-9.11-21.29-29.19-22.58-29.19-22.58s-12.66-8.75-33,4-23.41,28.85-25,44,4,32.48,13,40c6.41,5.36,16.87,5.62,22.36,5.33,2.23-.12,3.64-.33,3.64-.33S83,113.62,81.38,100.83Z" style="fill:#2a190a"/><path d="M77.28,162.14c9.08.88,24,2.49,25.32,3.06,1,.51,1.11,1.11,1.11,1.11a1,1,0,0,0,2,0,3.44,3.44,0,0,0-2.22-2.9c-1.7-.85-20.34-2.71-26-3.26a1,1,0,0,0-1.1.89A1,1,0,0,0,77.28,162.14Z" style="fill:#c63"/><path d="M114.88,167.33a1,1,0,0,0,1-1s.08-.63,1.1-1.14c1.36-.58,16.26-2.19,25.33-3.07a1,1,0,0,0,.9-1.1,1,1,0,0,0-1.09-.89c-5.68.55-24.32,2.41-26,3.26a3.44,3.44,0,0,0-2.22,2.9A1,1,0,0,0,114.88,167.33Z" style="fill:#c63"/><path d="M123.13,129.46l0-.6c0-.37,0-.75,0-1.15v-5a27.36,27.36,0,0,0,2.67-1.56c6-4,10.66-10.33,13.32-18.6a2,2,0,0,1,.07-.23c1.35,0,4.79-.49,6.93-6.56A13.28,13.28,0,0,1,138.71,99a17.46,17.46,0,0,0,1.66-12.27c-.14-.68-.3-1.29-.46-1.83,0,.43,0,.87-.08,1.3s0,.62-.05.92a57.86,57.86,0,0,1-2.54,14.79c-3,9.45-8.59,16.15-15.84,19.5-.5.23-1,.45-1.53.65a28.11,28.11,0,0,1-19.74,0c-8-3.08-14.12-10-17.37-20.15a53.16,53.16,0,0,1-2-8.77,74.18,74.18,0,0,0,.59,7.69c1.6,12.79,19.18,22.42,19.18,22.42s-1.41.21-3.64.33v4.13c0,.4,0,.78,0,1.15l0,.6a32.83,32.83,0,0,0,26.26,0Z" style="fill:#c63"/><path d="M107.11,102l.48.24a6,6,0,0,0,4.84,0l.48-.24c1.33-.67,1.08-1.22-.57-1.22h-4.67C106,100.77,105.77,101.32,107.11,102Z" style="fill:#994d26"/><path d="M120.1,105.68s-2.81,3.48-10.09,3.48-10-3.33-10.1-3.49A1.2,1.2,0,1,0,98,107.16c.14.18,3.53,4.4,12,4.4s11.84-4.22,12-4.4a1.2,1.2,0,1,0-1.89-1.48Z" style="fill:#994d26"/><path d="M158.82,187.5c-2.69-.9-8.32-4.47-8.32-4.47l3.5-27.75L151.85,154l-2-1.19v0l-3.75,29a289.88,289.88,0,0,1-36.12,2.5,289.88,289.88,0,0,1-36.12-2.5l-3.75-29v0L68.18,154,66,155.28,69.5,183s-5.63,3.57-8.32,4.47c0,0-1,9.77-1.61,20.28a110.17,110.17,0,0,0,100.86,0C159.85,197.27,158.82,187.5,158.82,187.5Z" style="fill:#431d0d"/></g></g></svg>