<svg xmlns="http://www.w3.org/2000/svg" viewBox="0 0 218.18 218.18"><g id="Layer_2" data-name="Layer 2"><g id="ƒŒƒCƒ__1" data-name="ƒŒƒCƒ„[_1"><path d="M35.11,189.25c-.39-7.36-.6-13.89-.33-16.32.75-6.75,4.18-11.48,9.25-13.25,5.75-2,11.48-4.47,18.25-6.5,4.64-1.39,13.74-7.11,19-10.56l-1.44.23C85,134.28,78.71,120,77,99.58c-1.78-1.12-3.77-3.63-4.88-9.18-1-5.18-.21-7.87,1-9.27C73,80.21,73,79.65,73,79.65s-4-47,37.2-47c39.34,0,38.3,36.05,36.82,46.18h0s0,0,0,.08c0,.19,0,.37-.08.54s0,.08,0,.12c0,.19-.06.37-.1.53A22.69,22.69,0,0,1,146.1,83c.55,1.59.7,4,0,7.44a19.69,19.69,0,0,1-2.26,6.36c-.09,19.22-8.25,34.2-3.12,46.34l-5.67-1.72c4.63,3.11,15.6,10.23,20.86,11.8,6.76,2,12.5,4.5,18.25,6.5,5.06,1.77,8.5,6.5,9.25,13.25.26,2.43.05,9-.34,16.32a109.09,109.09,0,1,0-148,0Z" style="fill:#dacffc"/><path d="M138.23,100.45c0,.08,0,.16-.07.23-3,9.47-8.7,16.43-16,20.17v5c0,.4,0,.78,0,1.15,0,.2,0,.41,0,.6,0,.56.08,1.07.13,1.57a12.25,12.25,0,0,0,.41-1.74l7.15,11.14,3.13,2.07c-.09-.49-.13-.75-.13-.75s.81.56,2.14,1.45l5.67,1.72c-5.13-12.14,3-27.12,3.12-46.34C141.81,100.14,139.33,100.49,138.23,100.45Z" style="fill:#603515"/><path d="M85.15,140.68l3.13-2.07,7.14-11.14a12.25,12.25,0,0,0,.41,1.74c0-.5.1-1,.13-1.57q0-.28,0-.6c0-.37,0-.75,0-1.15v-5c-7.29-3.73-13-10.69-16-20.16,0-.07,0-.15-.07-.23a5.2,5.2,0,0,1-3-.87c1.75,20.37,8.07,34.7,2.88,43.27l1.44-.23c2.4-1.58,4-2.69,4-2.69S85.23,140.19,85.15,140.68Z" style="fill:#603515"/><path d="M101.09,71.93a1,1,0,0,0-1-1H98.64c-2.69.87-4.42,1.29-4.42,1.29s.69-.45,1.83-1.29H92.8c-.55.65-1.1,1.32-1.64,2h8.93A1,1,0,0,0,101.09,71.93Z" style="fill:#4d3300"/><path d="M118.09,72.93h10a1,1,0,0,0,0-2h-10a1,1,0,0,0,0,2Z" style="fill:#4d3300"/><path d="M138.23,76.44l-.38-.08a25.36,25.36,0,0,1-.21,4.24l1.15,0A39.84,39.84,0,0,0,138.23,76.44Z" style="fill:#007399"/><path d="M102.67,81.17c.08.23.14.47.2.71l12.56-.46c0-.08,0-.17.08-.25,1.13-3.17,16.12-4.12,17.67-1.9a6.24,6.24,0,0,1,.44,1.48l.63,0c-.26-1.58-.61-3.29-1-5.06a34.86,34.86,0,0,0-3.49-.2c-4.66,0-16.4,0-17.28,5.78h-6.79c-.83-5.43-11.35-5.76-16.44-5.78-.65.91-1.27,1.86-1.89,2.84C92,77.53,101.77,78.64,102.67,81.17Z" style="fill:#007399"/><path d="M100.35,92.38c2.76-.9,5.17-3.13,5.47-7.38h6.54a7.76,7.76,0,0,0,5.47,7.38c3.35,1.08,14.51,1.13,16.88-1.75,1.59-1.92,2.19-5.43,2.41-7.54a10.7,10.7,0,0,1-2.28,4.38,30.54,30.54,0,0,0-.59-6.74l-.63,0c.48,2.56.2,6.59-1.4,8.26-2,2.06-12.25,2.22-14.35.8s-3.4-5.26-2.44-8.39l-12.56.46c.71,3-.6,6.61-2.56,7.93C98.2,91.23,87.93,91.07,86,89c-1.06-1.1-1.54-3.23-1.6-5.29Q83.22,86,82.28,88.54a8.24,8.24,0,0,0,1.18,2.09C85.83,93.51,97,93.46,100.35,92.38Z" style="fill:#007399"/><path d="M138.79,80.56l-1.15,0c0,.24-.07.49-.11.73l1.32-.07C138.83,81,138.81,80.78,138.79,80.56Z" style="fill:#007399"/><path d="M109.09,218.15h-2.16l2.16,0,2.16,0Z" style="fill:#ffcea1"/><path d="M109.09,141.18a17.11,17.11,0,0,0,13.26-12c0-.5-.1-1-.13-1.57-.45.2-.9.39-1.36.57a32.84,32.84,0,0,1-21.45.72A31.7,31.7,0,0,1,96,127.64c0,.56-.08,1.07-.13,1.57A17.13,17.13,0,0,0,109.09,141.18Z" style="fill:#ffcea1"/><path d="M113.34,54.1A82.3,82.3,0,0,0,92.8,70.93h3.25C99.67,68.29,107.91,61.83,113.34,54.1Z" style="fill:#ffcea1"/><path d="M137.72,74.47s.09.75.13,1.89l.38.08A11.29,11.29,0,0,0,137.72,74.47Z" style="fill:#ffcea1"/><path d="M115.51,81.17c0,.08-.05.17-.08.25-1,3.13.38,7,2.44,8.39s12.38,1.26,14.35-.8c1.6-1.67,1.88-5.7,1.4-8.26a6.24,6.24,0,0,0-.44-1.48C131.63,77.05,116.64,78,115.51,81.17Zm8.19,7.33c-2.43.07-3.71-1.53-3.65-4.56a6.18,6.18,0,0,1,.45-2.71,3.7,3.7,0,0,1,6.28-.23,6.09,6.09,0,0,1,.57,2.94C127.41,87,126.12,88.57,123.7,88.5Z" style="fill:#ffcea1"/><path d="M100.31,89.81c2-1.32,3.27-4.89,2.56-7.93-.06-.24-.12-.48-.2-.71-.9-2.53-10.63-3.64-15.31-2.86q-1.27,2-2.42,4.24c-.2.38-.39.78-.58,1.17.06,2.06.54,4.19,1.6,5.29C87.93,91.07,98.2,91.23,100.31,89.81ZM91,82.32a3.22,3.22,0,0,1,3.52-2.95A3.17,3.17,0,0,1,98,82.07a7.11,7.11,0,0,1,.18,1.87c.06,3-1.22,4.63-3.65,4.56S90.77,87,90.83,83.94A8.12,8.12,0,0,1,91,82.32Z" style="fill:#ffcea1"/><path d="M105.69,81.25h6.79c.88-5.75,12.62-5.78,17.28-5.78a34.86,34.86,0,0,1,3.49.2c-1.88-8.31-5-18-7.16-21.57-6.41,9.08-20.32,14.53-27.45,16.83h1.45a1,1,0,0,1,0,2H91.16c-.65.83-1.29,1.67-1.91,2.54C94.34,75.49,104.86,75.82,105.69,81.25Zm12.4-10.32h10a1,1,0,0,1,0,2h-10a1,1,0,0,1,0-2Z" style="fill:#ffcea1"/><path d="M137.53,81.33a16,16,0,0,1-.41,1.76c-.22,2.11-.82,5.62-2.41,7.54-2.37,2.88-13.53,2.83-16.88,1.75A7.76,7.76,0,0,1,112.36,85h-6.54c-.3,4.25-2.71,6.48-5.47,7.38C97,93.46,85.83,93.51,83.46,90.63a8.24,8.24,0,0,1-1.18-2.09,56.77,56.77,0,0,0-1.86,6,50,50,0,0,0,1.43,5.55c3.25,10.11,9.37,17.07,17.37,20.15l.22.08a28.07,28.07,0,0,0,19.35,0l.17-.06c8-3.08,14.12-10,17.37-20.15a58.85,58.85,0,0,0,2.59-15.71c0-.37.05-.75.07-1.13,0-.72-.08-1.38-.14-2ZM106.75,99h4.67c1.65,0,1.9.55.57,1.22l-.48.25a6.08,6.08,0,0,1-4.84,0l-.49-.25C104.85,99.5,105.11,99,106.75,99Zm14.32,6.39c-.14.18-3.54,4.4-12,4.4s-11.84-4.22-12-4.4A1.2,1.2,0,1,1,99,103.86c.13.15,2.92,3.48,10.1,3.48s10.06-3.44,10.09-3.48a1.2,1.2,0,0,1,1.89,1.48Z" style="fill:#ffcea1"/><path d="M76.72,83.65A3.82,3.82,0,0,0,78.8,83l.13-.26.2-.4c.18-.37.36-.73.55-1.09a42.74,42.74,0,0,1,3.5-5.4C95.34,59.69,119.8,46.7,119.8,46.7s-1,5.66-7.33,14a47.4,47.4,0,0,0,16-11.34L138,64.45l2.64,4.19,6.44,10.19c1.48-10.13,2.52-46.18-36.82-46.18-41.22,0-37.2,47-37.2,47s0,.56.06,1.48v.05C74.77,82.25,75.43,83.55,76.72,83.65Z" style="fill:#70421b"/><path d="M76.41,95.14l.27.5c.1.17.19.34.3.51-.11-.17-.2-.35-.3-.53S76.5,95.31,76.41,95.14Z" style="fill:#70421b"/><path d="M138,64.45l-9.51-15.09a47.4,47.4,0,0,1-16,11.34c6.33-8.34,7.33-14,7.33-14s-24.46,13-36.62,29.18a42.74,42.74,0,0,0-3.5,5.4c-.19.36-.37.72-.55,1.09l-.2.4L78.8,83a3.82,3.82,0,0,1-2.08.62c-1.29-.1-2-1.4-3.62-2.47,0,.09,0,.2,0,.3l0,.45c0,.27,0,.57.07.88a.17.17,0,0,1,0,.07c0,.3.06.61.1.94v.12c0,.3.08.62.12.94,0,0,0,.07,0,.11,0,.33.1.67.15,1,0,.09,0,.17,0,.25.06.35.13.71.2,1.08a.36.36,0,0,0,0,.1c.06.34.14.68.21,1,0,.09.05.18.07.28.08.36.17.73.27,1.09a2.5,2.5,0,0,0,.07.26c.09.32.18.65.28,1a1.55,1.55,0,0,0,.07.23c.11.37.24.74.37,1.1,0,.1.07.19.11.29.14.37.28.74.44,1.1l0,.08q.22.52.48,1l.12.25c.09.17.18.32.27.48s.19.36.3.53a1.74,1.74,0,0,0,.11.18c.18.3.38.59.58.87l.11.16c.23.3.46.6.71.87a1.54,1.54,0,0,0,.17.19c.26.28.53.55.81.8.25-1.6.57-3.16,1-4.68a56.77,56.77,0,0,1,1.86-6q.94-2.51,2.08-4.82c.19-.39.38-.79.58-1.17q1.14-2.22,2.42-4.24c.62-1,1.24-1.93,1.89-2.84s1.26-1.71,1.91-2.54,1.09-1.35,1.64-2A82.3,82.3,0,0,1,113.34,54.1c-5.43,7.73-13.67,14.19-17.29,16.83-1.14.84-1.83,1.29-1.83,1.29s1.73-.42,4.42-1.29c7.13-2.3,21-7.75,27.45-16.83,2.19,3.62,5.28,13.26,7.16,21.57.39,1.77.74,3.48,1,5.06a30.54,30.54,0,0,1,.59,6.74,10.7,10.7,0,0,0,2.28-4.38,16,16,0,0,0,.41-1.76c0-.24.08-.49.11-.73a25.36,25.36,0,0,0,.21-4.24c0-1.14-.13-1.89-.13-1.89a11.29,11.29,0,0,1,.51,2,39.84,39.84,0,0,1,.56,4.12c0,.22,0,.46.06.7.06.61.1,1.27.14,2,.18,3.11.26,7.22.1,12.6a51,51,0,0,0,4.33-6.73A37,37,0,0,0,146.1,83a22.69,22.69,0,0,0,.74-2.86c0-.16.07-.34.1-.53,0,0,0-.08,0-.12s0-.35.08-.54c0,0,0,0,0-.08h0l-6.44-10.19Z" style="fill:#603617"/><path d="M106.18,100.17l.49.25a6.08,6.08,0,0,0,4.84,0l.48-.25c1.33-.67,1.08-1.22-.57-1.22h-4.67C105.11,99,104.85,99.5,106.18,100.17Z" style="fill:#f4906e"/><path d="M119.18,103.86s-2.81,3.48-10.09,3.48-10-3.33-10.1-3.48a1.2,1.2,0,1,0-1.88,1.48c.14.18,3.53,4.4,12,4.4s11.84-4.22,12-4.4a1.2,1.2,0,0,0-1.89-1.48Z" style="fill:#ef7c2e"/><path d="M80,100.45c0,.08,0,.16.07.23,3,9.47,8.7,16.43,16,20.16v5c0,.4,0,.78,0,1.15q0,.31,0,.6a31.7,31.7,0,0,0,3.45,1.29,32.84,32.84,0,0,0,21.45-.72c.46-.18.91-.37,1.36-.57,0-.19,0-.4,0-.6,0-.37,0-.75,0-1.15v-5c7.29-3.74,13-10.7,16-20.17,0-.07,0-.15.07-.23,1.1,0,3.58-.31,5.61-3.69a19.69,19.69,0,0,0,2.26-6.36c.7-3.49.55-5.85,0-7.44a37,37,0,0,1-2.68,6.16,51,51,0,0,1-4.33,6.73c.16-5.38.08-9.49-.1-12.6,0,.38,0,.76-.07,1.13a58.85,58.85,0,0,1-2.59,15.71C133.08,110.2,127,117.16,119,120.24l-.17.06a28.07,28.07,0,0,1-19.35,0l-.22-.08c-8-3.08-14.12-10-17.37-20.15a50,50,0,0,1-1.43-5.55c-.38,1.52-.7,3.08-1,4.68-.28-.25-.55-.52-.81-.8a1.54,1.54,0,0,1-.17-.19c-.25-.27-.48-.57-.71-.87l-.11-.16c-.2-.28-.4-.57-.58-.87a1.74,1.74,0,0,1-.11-.18c-.11-.17-.2-.34-.3-.51l-.27-.5-.12-.25q-.26-.49-.48-1l0-.08c-.16-.36-.3-.73-.44-1.1,0-.1-.08-.19-.11-.29-.13-.36-.26-.73-.37-1.1a1.55,1.55,0,0,1-.07-.23c-.1-.32-.19-.65-.28-1a2.5,2.5,0,0,1-.07-.26c-.1-.36-.19-.73-.27-1.09,0-.1,0-.19-.07-.28-.07-.35-.15-.69-.21-1a.36.36,0,0,1,0-.1c-.07-.37-.14-.73-.2-1.08,0-.08,0-.16,0-.25,0-.35-.11-.69-.15-1,0,0,0-.07,0-.11,0-.32-.08-.64-.12-.94v-.12c0-.33-.07-.64-.1-.94a.17.17,0,0,0,0-.07c0-.31,0-.61-.07-.88l0-.45c0-.1,0-.21,0-.3v-.05c-1.23,1.4-2.06,4.09-1,9.27,1.11,5.55,3.1,8.06,4.88,9.18A5.2,5.2,0,0,0,80,100.45Z" style="fill:#ffba7b"/><path d="M122.76,127.47a12.25,12.25,0,0,1-.41,1.74,17.11,17.11,0,0,1-13.26,12,17.13,17.13,0,0,1-13.26-12,12.25,12.25,0,0,1-.41-1.74l-7.14,11.14-3.13,2.07c-.05.25-.1.56-.16.93-.48,2.82-1.48,9-2.6,17.3-.09.65-.18,1.31-.27,2a483.75,483.75,0,0,0-4.3,52.72,108.44,108.44,0,0,0,29.11,4.53h4.32a108.44,108.44,0,0,0,29.11-4.53,481.86,481.86,0,0,0-4.31-52.77c-.09-.67-.18-1.33-.26-2-1.12-8.23-2.12-14.44-2.6-17.26-.05-.32-.1-.59-.14-.82,0,0,0-.08,0-.11l-3.13-2.07Zm-13.67,81.74a1.86,1.86,0,1,1,1.86-1.86A1.87,1.87,0,0,1,109.09,209.21Zm0-29.36A1.86,1.86,0,1,1,111,178,1.86,1.86,0,0,1,109.09,179.85Zm0-29.35a1.86,1.86,0,1,1,1.86-1.86A1.87,1.87,0,0,1,109.09,150.5Zm21.48-7.93-7.14,14.14a.87.87,0,0,1-.65.46h-.12a.86.86,0,0,1-.62-.27l-13-13.77-13,13.77a.86.86,0,0,1-.62.27H95.4a.87.87,0,0,1-.65-.46l-7.14-14.14a.86.86,0,0,1,.38-1.15.85.85,0,0,1,1.15.37l6.59,13.05,12.59-13.39a.84.84,0,0,1,.77-.24.82.82,0,0,1,.77.24l12.59,13.39L129,141.79a.85.85,0,0,1,1.15-.37A.86.86,0,0,1,130.57,142.57Z" style="fill:#fff"/><path d="M129,141.79l-6.59,13.05-12.59-13.39a.82.82,0,0,0-.77-.24.84.84,0,0,0-.77.24L95.73,154.84l-6.59-13.05a.85.85,0,0,0-1.15-.37.86.86,0,0,0-.38,1.15l7.14,14.14a.87.87,0,0,0,.65.46h.12a.86.86,0,0,0,.62-.27l13-13.77,13,13.77a.86.86,0,0,0,.62.27h.12a.87.87,0,0,0,.65-.46l7.14-14.14a.86.86,0,0,0-.38-1.15A.85.85,0,0,0,129,141.79Z" style="fill:#aaa"/><path d="M109.09,146.78a1.86,1.86,0,1,0,1.86,1.86A1.86,1.86,0,0,0,109.09,146.78Z" style="fill:#888"/><path d="M109.09,176.14A1.86,1.86,0,1,0,111,178,1.86,1.86,0,0,0,109.09,176.14Z" style="fill:#888"/><path d="M109.09,205.49a1.86,1.86,0,1,0,1.86,1.86A1.86,1.86,0,0,0,109.09,205.49Z" style="fill:#888"/><path d="M94.48,88.5c2.43.07,3.71-1.53,3.65-4.56A7.11,7.11,0,0,0,98,82.07a3.17,3.17,0,0,0-3.47-2.7A3.22,3.22,0,0,0,91,82.32a8.12,8.12,0,0,0-.13,1.62C90.77,87,92.05,88.57,94.48,88.5Z" style="fill:#444"/><path d="M123.7,79.37a3.1,3.1,0,0,0-3.2,1.86,6.18,6.18,0,0,0-.45,2.71c-.06,3,1.22,4.63,3.65,4.56s3.71-1.53,3.65-4.56a6.09,6.09,0,0,0-.57-2.94A3.11,3.11,0,0,0,123.7,79.37Z" style="fill:#444"/><path d="M59.19,186.35h0L55,178.75a1,1,0,0,1-.12-.4,1,1,0,0,1,1.86-.57l4.38,7.87a1.09,1.09,0,0,1,.12.56v0c0,.14-.92,10.38-1.38,20.22a107.77,107.77,0,0,0,18,7.17,483.75,483.75,0,0,1,4.3-52.72c.09-.68.18-1.34.27-2,1.12-8.25,2.12-14.48,2.6-17.3.06-.37.11-.68.16-.93.08-.49.13-.75.13-.75s-1.6,1.11-4,2.69c-5.26,3.45-14.36,9.17-19,10.56-6.77,2-12.5,4.5-18.25,6.5-5.07,1.77-8.5,6.5-9.25,13.25-.27,2.43-.06,9,.33,16.32a109.16,109.16,0,0,0,22.76,16.18C58.3,196.77,59,188.08,59.19,186.35Z" style="fill:#444"/><path d="M183.41,172.93c-.75-6.75-4.19-11.48-9.25-13.25-5.75-2-11.49-4.47-18.25-6.5-5.26-1.57-16.23-8.69-20.86-11.8-1.33-.89-2.14-1.45-2.14-1.45s0,.26.13.75c0,0,0,.07,0,.11,0,.23.09.5.14.82.48,2.82,1.48,9,2.6,17.26.08.65.17,1.31.26,2a481.86,481.86,0,0,1,4.31,52.77,107.77,107.77,0,0,0,18-7.17c-.45-9.84-1.37-20.08-1.38-20.22v0a1.09,1.09,0,0,1,.12-.56l4.38-7.87a1,1,0,0,1,1.86.57.88.88,0,0,1-.12.4l-4.22,7.6h0c.15,1.73.89,10.42,1.32,19.08a108.9,108.9,0,0,0,22.76-16.18C183.46,181.89,183.67,175.36,183.41,172.93Z" style="fill:#444"/><path d="M159,186.35h0l4.22-7.6a.88.88,0,0,0,.12-.4,1,1,0,0,0-1.86-.57l-4.38,7.87a1.09,1.09,0,0,0-.12.56v0c0,.14.93,10.38,1.38,20.22l2-1C159.88,196.77,159.14,188.08,159,186.35Z" style="fill:#222"/><path d="M61.21,186.21a1.09,1.09,0,0,0-.12-.56l-4.38-7.87a1,1,0,0,0-1.86.57,1,1,0,0,0,.12.4l4.22,7.6h0c-.15,1.73-.89,10.42-1.32,19.08l2,1c.46-9.84,1.37-20.08,1.38-20.22Z" style="fill:#222"/></g></g></svg>